<svg version="1.1" id="katman_1" xmlns="http://www.w3.org/2000/svg" x="0" y="0" style="enable-background:new 0 0 489 243" xml:space="preserve" viewBox="23.7 36.24 430.2 187.45">
    <style>
        .st2{fill:url(#SVGID_00000010997653176823732540000018409045937192849283_)}.st3{fill:url(#SVGID_00000101104070461332144240000001572189148895744649_)}.st4{fill:url(#SVGID_00000107583721705000863820000013644520454774532996_)}.st5{fill:url(#SVGID_00000075843423784552432550000004045380409139730584_)}
    </style>
    <linearGradient id="SVGID_1_" gradientUnits="userSpaceOnUse" x1="150.882" y1="67.804" x2="453.9" y2="67.804">
        <stop offset="0" style="stop-color:#14806f"/>
        <stop offset=".047" style="stop-color:#158d7e"/>
        <stop offset=".177" style="stop-color:#17aea2"/>
        <stop offset=".313" style="stop-color:#18c8c0"/>
        <stop offset=".457" style="stop-color:#19ddd8"/>
        <stop offset=".61" style="stop-color:#1aece8"/>
        <stop offset=".78" style="stop-color:#1bf4f2"/>
        <stop offset="1" style="stop-color:#1bf7f5"/>
    </linearGradient>
    <path d="M200.4 58.1c0 5.4-2.6 10.1-7.7 13.9-5.1 3.8-12.1 5.3-20.9 4.3.3 3.6.6 7.1.9 10.6.3 3.5.9 7 1.6 10.6h-23.5c1.9-19.5 2-39.3.2-59.6 25.9-2.3 41.3.2 46.4 7.5 2 3 3 7.2 3 12.7zm-29.2 2.7c3.6.2 5.9.1 7.2-.3 1.2-.4 2.1-1 2.8-1.8.6-.8.9-1.9.8-3.3-.1-1.4-.8-2.4-2.2-3-1.4-.6-2.7-.9-4.1-1.1-1.4-.1-2.9-.1-4.6 0-.1 1.3 0 4.4.1 9.5zm63.2 22.8c2.1 0 4-.6 5.8-1.9 1.7-1.2 3.2-2.8 4.4-4.9.2 8.4 1.3 15.3 3.2 20.7h-44.3c.2-.6.4-1.5.6-2.6.3-1.5.6-3 .8-4.7.7-4.6 1.2-9.3 1.5-14.1.9-14.3-.1-27-3-38.3h44.5v.4c-.1.3-.2.7-.2 1.1-.2 1.3-.5 2.6-.7 4.1-.7 4.6-1.3 9.2-1.7 13.8-1.2-2.5-2.7-4.5-4.6-5.9-1.9-1.5-4.1-2.3-6.3-2.3-3.2 0-6 1.4-8.4 4.2-2.4 2.8-3.8 6.3-4.3 10.5 2-1.5 4-2.5 6.1-3.1 2.7-.8 5.4-.8 8.1 0 2.4.7 4 1.8 4.9 3.2.8 1.2 1.3 2.6 1.3 4.1 0 1.9-.7 3.6-2 4.9-1.4 1.4-3 2.1-5 2.1-1.6 0-3.1-.5-4.3-1.5-1.3-1-2.1-2.3-2.5-3.8-1.6.7-2.9 1.8-3.7 3.4-.8 1.5-1 3.1-.6 4.7.4 1.7 1.4 3.1 3 4.2 1.9 1.1 4.3 1.7 7.4 1.7zm74.4-5.4c.7 2.3 1.1 4.6 1.3 7 .2 2.4-.2 4.7-1.1 6.9-.1.1-.1.3-.2.4-.9 1.9-2.2 3.4-3.8 4.7-1.7 1.2-3.6 2-5.7 2.2-2.1.3-4.1.1-6.1-.5-2.5-.8-4.5-2-6.3-3.7-1.7-1.7-3-3.8-3.8-6.3-.8-2.4-1.2-4.8-1.5-7.3-.1-.5-.1-1-.2-1.5V80c-.2-1.5-.6-3-1.2-4.5s-1.7-2.6-3.2-3.3c-.7-.3-1.5-.4-2.3-.4 0 .7.1 1.4.1 2.1.2 4.2.5 8.2.8 12.3.3 4 .8 7.6 1.5 10.9h-23.5l.8-10.3c.5-6.9.9-14.9 1-24 .1-9.1-.4-17.6-1.6-25.3 18-1.4 30.7-1.1 37.9.9s11 6.7 11.2 14.3v.6c0 3.9-1.1 7-3.2 9.5-2.2 2.5-4.9 4.4-8.3 5.6 1.5 1.4 2.7 3.3 3.5 5.6.8 2.3 1.7 4.2 2.7 5.8 1 1.6 2.6 2.4 4.8 2.5 1.3 0 2.4-.3 3.5-1 1.3-.7 2.2-1.7 2.9-3.1zm-24.6-25c-.2-1.2-1-2-2.2-2.4-1.3-.5-2.6-.7-4.2-.8-1.5-.1-2.8 0-3.8 0 0 .9.1 1.8.1 2.9.1 1.1.1 2.5.3 4.2 1.4.1 2.7.1 3.7 0 1 0 2-.2 3-.4.8-.2 1.6-.6 2.1-1.2.6-.6.9-1.3.9-2.1.1-.1.1-.2.1-.2zM364 70.9c2.3 3.4 3.4 7.1 3.1 11.2-.4 4.2-1.8 7.6-4.3 10.1s-5.5 4.2-9.2 5.1c-3.6 1-7.4 1.3-11.3 1-3.9-.3-7.5-1.1-10.8-2.4-.8-.4-1.7-.7-2.5-1.1-4.1-2.1-7.5-4.9-10.3-8.4-3.4-4.5-5.3-9.4-5.8-14.7-.5-5.4.3-10.6 2.4-15.7s5.2-9.3 9.5-12.8c4-3.2 8.5-5.3 13.6-6.3 5.1-1.1 10.1-.8 15 .7 3.1 1 5.6 2.6 7.5 4.8 2 2.2 2.9 4.9 2.9 8.1-.1 3.1-1.2 5.8-3.2 8.2-2 2.4-4.6 3.8-7.7 4.3-1.9.2-3.8 0-5.7-.9-1.9-.8-2.9-2.2-3.1-4.3 0-1.6.5-3.1 1.7-4.4 1.1-1.3 2.6-2.1 4.3-2.2.7-.1 1.3 0 2 .3.6.2 1.1.6 1.4 1.2-.9-1.8-2.3-2.8-4.2-3.1-2-.3-3.8-.1-5.5.6-3.2 1.4-5.7 3.6-7.2 6.4-1.6 2.9-2.3 5.9-2.1 9.2.2 3.3 1.2 6.3 3.2 9.1 2.5 3.3 5.8 5.4 9.7 6.4 3.9.9 7.7.2 11.3-2.1 2.6-2.3 4.4-5 5.3-8.3zm6.6 26.6c2.3-23.9 2.3-43.8-.1-59.7h22.6c-3 17-3.6 36.9-1.7 59.7h-20.8zm83.3-59.7c-4 20.7-4.4 40.6-1.3 59.7h-21.9c-2.6-8.8-7-17.4-12.9-25.9-.9 10.2 0 18.8 2.6 25.9H399c3.6-20.2 4-39.9 1.2-59.3h23.2c1.9 9.5 5.7 18.5 11.3 27.1.4-9.6-.5-18.8-2.5-27.4h21.7z" style="fill:url(#SVGID_1_)"/>
    <linearGradient id="SVGID_00000058553464040476503740000000791251541515446152_" gradientUnits="userSpaceOnUse" x1="150.855" y1="168.397" x2="452.162" y2="168.397">
        <stop offset="0" style="stop-color:#14806f"/>
        <stop offset=".047" style="stop-color:#158d7e"/>
        <stop offset=".177" style="stop-color:#17aea2"/>
        <stop offset=".313" style="stop-color:#18c8c0"/>
        <stop offset=".457" style="stop-color:#19ddd8"/>
        <stop offset=".61" style="stop-color:#1aece8"/>
        <stop offset=".78" style="stop-color:#1bf4f2"/>
        <stop offset="1" style="stop-color:#1bf7f5"/>
    </linearGradient>
    <path style="fill:url(#SVGID_00000058553464040476503740000000791251541515446152_)" d="M284.5 198.9c.9 2.7 1.1 5.4.4 8.2-.6 2.8-1.9 5.3-3.7 7.5-3.2 3.7-7.1 6.3-11.8 7.6-4.7 1.3-9.6 1.8-14.7 1.3-5.1-.4-9.8-1.4-14.2-2.9-7.2-2.4-13.4-6.2-18.5-11.4-5.1-5.1-9.2-11.2-12.2-18.1-1.6-3.7-3-7.8-4-12.1-.9-3.4-2.3-10-4.4-20-1.4 7.3-2.3 15.6-2.5 24.7h-17.1c-1.9-9.9-4.5-20.2-7.8-30.9-.8 10.3-1.3 20.6-1.4 30.9h-21.8c2.5-23.4 3.9-46.8 4.4-70.1h26.2c1.5 9.3 4 18.9 7.6 28.6 3.2-9.4 5.6-18.9 7.1-28.6h25.5c-1 24.4.5 44.7 4.2 60.8 2.1 15.8 7.7 26.4 16.9 31.7 5.6 3.3 11 5 16.1 5 2.9 0 5.7-.5 8.2-1.7 2.9-1.3 4.9-3.1 6.1-5.5-.6.8-1.4 1.3-2.5 1.4-2 .2-3.5-.2-4.6-1.3-1-1.1-1.6-2.4-1.8-4.1-.2-1.6.1-3.2.8-4.8 1.1-2.2 2.8-3.6 5.1-4.4 2.2-.8 4.5-.7 6.9.1 3.6 1.9 6.1 4.5 7.5 8.1zm-15.9-31.4c2.4 0 4.7-.7 6.8-2.2 2-1.4 3.8-3.3 5.2-5.8.3 9.8 1.5 17.9 3.7 24.2h-51.9c.2-.7.5-1.8.7-3.1.3-1.7.7-3.5 1-5.5.9-5.4 1.5-10.9 1.8-16.6 1.1-16.7-.1-31.7-3.6-44.8h52.2v.5c-.1.4-.2.8-.2 1.3-.3 1.5-.6 3.1-.8 4.8-.8 5.4-1.5 10.8-1.9 16.2-1.4-2.9-3.2-5.2-5.4-6.9-2.3-1.8-4.8-2.7-7.4-2.7-3.7 0-7 1.6-9.8 4.9-2.8 3.3-4.4 7.3-5 12.3 2.3-1.7 4.7-3 7.2-3.7 3.2-.9 6.3-.9 9.5 0 2.8.9 4.7 2.1 5.7 3.8 1 1.4 1.5 3 1.5 4.8 0 2.2-.8 4.2-2.4 5.8-1.6 1.6-3.6 2.4-5.8 2.4-1.9 0-3.6-.6-5.1-1.8-1.5-1.2-2.5-2.7-2.9-4.5-1.9.8-3.4 2.1-4.3 3.9-.9 1.8-1.2 3.6-.7 5.6.5 2 1.7 3.7 3.6 4.9 1.8 1.5 4.7 2.2 8.3 2.2zm82.7-20.9c.8 9-.8 17.1-4.7 24.5-2.6 4.9-6.2 8.6-10.8 11.1-7.3 4.1-22.1 4.7-44.6 1.8 2.6-23.2 2.6-46.6 0-70.3 16.4-1.1 29-.3 37.8 2.4 8.9 2.8 15.3 8.8 19.1 17.9 1.8 3.8 2.8 8.1 3.2 12.6zm-37.6 18.1c4.3-.1 7.9-1.6 10.8-4.3 2.7-2.5 4.4-5.6 5.1-9.2.7-3.7 0-7.6-2.2-11.7s-6.7-6.2-13.7-6.2c-.5 10.8-.5 21.3 0 31.4zm41.5 19c2.7-28 2.6-51.3-.1-70h26.5c-3.5 20-4.2 43.3-2 70h-24.4zm69.2 0c1.5-4.4 2.2-9.7 2-15.9-4.2 1.9-9.3 2.1-15.1.4-.2 6 .5 11.2 2 15.5h-27.8c7.5-27.9 11.9-51.2 13.3-70h40c-.3 17 4.1 40.3 13.3 70h-27.7zm-11.3-30.6c4 .6 7.8.3 11.3-.9-1.3-6.2-3.1-12.8-5.6-19.9-2.5 7.3-4.4 14.3-5.7 20.8z"/>
    <linearGradient id="SVGID_00000163032350608978573420000008552338732609745814_" gradientUnits="userSpaceOnUse" x1="23.729" y1="106.036" x2="125.066" y2="106.036">
        <stop offset="0" style="stop-color:#00fb94"/>
        <stop offset=".12" style="stop-color:#00f59b"/>
        <stop offset=".294" style="stop-color:#00e5af"/>
        <stop offset=".501" style="stop-color:#00cbce"/>
        <stop offset=".511" style="stop-color:#00cad0"/>
        <stop offset="1" style="stop-color:#02a8fa"/>
    </linearGradient>
    <path style="fill:url(#SVGID_00000163032350608978573420000008552338732609745814_)" d="M23.7 133.3v-25.1l50.7-29.4 50.7 29.3v25.2l-51.3-29.1z"/>
    <linearGradient id="SVGID_00000087393067942839085440000013596734985892880821_" gradientUnits="userSpaceOnUse" x1="40.041" y1="163.777" x2="108.32" y2="163.777">
        <stop offset="0" style="stop-color:#00fb94"/>
        <stop offset=".12" style="stop-color:#00f59b"/>
        <stop offset=".294" style="stop-color:#00e5af"/>
        <stop offset=".501" style="stop-color:#00cbce"/>
        <stop offset=".511" style="stop-color:#00cad0"/>
        <stop offset="1" style="stop-color:#02a8fa"/>
    </linearGradient>
    <path style="fill:url(#SVGID_00000087393067942839085440000013596734985892880821_)" d="M61.8 180.4 40 167.5l34.4-20.3 33.9 20.2-20.9 13-13-8z"/>
    <linearGradient id="SVGID_00000176016944302960196400000017575354322183509417_" gradientUnits="userSpaceOnUse" x1="23.729" y1="137.649" x2="125.066" y2="137.649">
        <stop offset="0" style="stop-color:#00fb94"/>
        <stop offset=".12" style="stop-color:#00f59b"/>
        <stop offset=".294" style="stop-color:#00e5af"/>
        <stop offset=".501" style="stop-color:#00cbce"/>
        <stop offset=".511" style="stop-color:#00cad0"/>
        <stop offset="1" style="stop-color:#02a8fa"/>
    </linearGradient>
    <path style="fill:url(#SVGID_00000176016944302960196400000017575354322183509417_)" d="m74.2 137.5-41.4 25-9.1-4.2V142l50.5-29.2 50.9 29.3v15.5l-7.8 4.9z"/>
</svg>
